<svg id="图层_1" data-name="图层 1" xmlns="http://www.w3.org/2000/svg" xmlns:xlink="http://www.w3.org/1999/xlink" viewBox="0 0 474.85 70.6"><defs><style>.cls-1,.cls-2{fill:none;}.cls-2{clip-path:url(#clip-path);}.cls-3{fill:#2e6ff1;}.cls-4{fill:#e00800;}.cls-5{clip-path:url(#clip-path-2);}</style><clipPath id="clip-path"><rect class="cls-1" x="66.75" y="365.27" width="500" height="71"/></clipPath><clipPath id="clip-path-2" transform="translate(-68 -361)"><path class="cls-2" d="M327.72,366.5a8.15,8.15,0,0,0-2.67,1.82c-1.76,1.9-2.53,4.19-2.49,7.51a8.54,8.54,0,0,0,1.11,4.88c2,4.12,5.89,5.41,9,3,4-3.09,4.72-10.39,1.53-14.78-.84-1.13-3.78-2.95-4.72-2.92a13.47,13.47,0,0,0-1.77.5Zm18.65,1.39c-1.31.27-4.4,3.22-5.37,5.15-1.66,3.25-1.59,7.4.17,10a6.82,6.82,0,0,0,7.8,2.06c3.68-1.46,6.49-6.84,5.62-10.63-1-4.21-4.82-7.23-8.22-6.54Zm-33.21,12.55a8.42,8.42,0,0,0-4.54,4.95c-1.38,4.35-.86,7.91,1.56,10.56a5.7,5.7,0,0,0,5.55,2.19,6.43,6.43,0,0,0,5.82-3.88c.83-1.6.94-2.23.94-4.85,0-2.39-.14-3.25-.76-4.35a9,9,0,0,0-4.3-4.25c-2.05-1-2.36-1-4.27-.37ZM355,385.13c-2.6,1.26-3.89,4.08-3.89,8.56,0,3.32.45,4.89,1.77,6.35s3.61,2.29,6.34,2.09c2.54-.2,3.89-.87,5-2.39s1.45-3,1.45-6.38c0-2.69-.1-3.25-1-4.81a6.73,6.73,0,0,0-6.24-3.89,7.08,7.08,0,0,0-3.46.47Zm-22.26,6.47a11.2,11.2,0,0,0-5.17,4.22c-2,2.85-3.95,4.81-8.11,8.27-6.31,5.21-7.62,7.17-7.66,11.22-.07,4.88,2.88,9.2,7,10.33,2.4.66,8.6.5,13.25-.4a26.89,26.89,0,0,1,11.61.56c4.44,1.07,9.36,1.07,11.89,0,4.78-2.06,7.25-8.33,5.23-13.51a8.82,8.82,0,0,0-2.84-3.75,132.42,132.42,0,0,1-12.44-12.32c-2-2.59-4.09-4.29-6.14-4.92a11.08,11.08,0,0,0-6.62.3Zm1,9.27c.45.26.52,1.86.62,10.29l.11,10h-4.13c-5.06,0-7-.5-8.8-2.22s-2-2.63-2-5.25.38-3.65,1.83-5.08c1.84-1.86,3.3-2.39,6.49-2.39h2.77v-5.65H332a4.54,4.54,0,0,1,1.8.34Zm6.93,10.52c0,6.05,0,6.08,3.71,6.08H347V406.84h4.23l-.14,6.35c-.14,8,.21,7.6-6.24,7.6-4.85,0-5.85-.27-7.17-1.86-.66-.83-.73-1.29-.73-6.44a35.79,35.79,0,0,1,.24-5.75,4.92,4.92,0,0,1,1.91-.23h1.66v4.88Zm-15.18-1.56a4.5,4.5,0,0,0-1.66,5.81c.69,1.53,2.18,2.23,4.64,2.09l2-.09v-8.31l-1.91-.1a5,5,0,0,0-3,.6Z"/></clipPath></defs><path class="cls-3" d="M89,400.72q1.15-2.1,2.2-4.4t1.95-4.7h11.8l-2,5.8,7.55,2.4,2.8-8.05v-7.95H95.75c.17-.5.32-1,.45-1.52s.27-1,.4-1.53l-8.35-1.45a45,45,0,0,1-1.28,4.6q-.82,2.5-1.8,4.95t-2,4.68a39.43,39.43,0,0,1-2,3.72L89,400.72Zm-3.15.35c-.23,1.17-.54,2.42-.92,3.75s-.81,2.69-1.25,4.08-.94,2.75-1.46,4.12-1,2.67-1.52,3.9v-26.1c.63-1.5,1.22-3,1.75-4.6s1-3.18,1.5-4.85l-7.9-1.8a48.54,48.54,0,0,1-1.4,5q-.85,2.52-1.9,4.9T70.45,394q-1.2,2.14-2.45,4l1.9,10.85c1.17-1.47,2.28-3,3.35-4.55v21.6h7.4v-5.55l6,2.05q1-2.36,2-4.9c.66-1.7,1.25-3.39,1.8-5.07s1-3.35,1.48-5,.78-3.21,1-4.68l-7.25-1.65Zm8,14.1a2.28,2.28,0,0,1-.48,1.58,3.17,3.17,0,0,1-1.92.72l-1.9.25,2.4,8.55,3.7-.35a18.66,18.66,0,0,0,3-.47,4.72,4.72,0,0,0,1.94-1,3.65,3.65,0,0,0,1.06-1.77,11.16,11.16,0,0,0,.32-2.93v-25.1H93.8v20.5Zm8.5-12.55q1.61,4.75,3.08,9.6t2.62,10l7.35-1.9c-.37-1.43-.78-2.95-1.25-4.55s-1-3.22-1.5-4.87-1.09-3.3-1.68-4.95-1.15-3.25-1.72-4.78l-6.9,1.45Zm43-1.25v-3.05h-3.45q1.54-2,3-4.07c1-1.39,1.88-2.86,2.78-4.43h14v-8.25h-40.9v8.25H138a47.53,47.53,0,0,1-8.23,9.78,84.09,84.09,0,0,1-12.32,9.17l5.55,7.5q4.09-3.15,7.52-6.12t6.38-6.08v21.5h8.4v-21.4q1.65,1.24,3.47,2.78t3.68,3.15q1.85,1.62,3.57,3.25t3.08,3.12l5.3-7.65q-1.4-1.31-3.3-2.85c-1.27-1-2.59-2.09-4-3.17s-2.76-2.14-4.15-3.15-2.65-1.93-3.82-2.73l-3.85,4.45ZM175.9,400h29.55v-3.35c.8.43,1.61.84,2.42,1.23s1.61.74,2.38,1.07l3.6-7.8a74.09,74.09,0,0,1-11.3-5.52,33.65,33.65,0,0,1-7.85-6.58h-8.15a33.24,33.24,0,0,1-7.75,6.38,74.38,74.38,0,0,1-11.75,5.67l3.65,7.65c.9-.43,1.78-.85,2.65-1.25s1.72-.83,2.55-1.3V400Zm18.57-10.22q2.17,1.67,4.68,3.27H181.6c1.87-1.13,3.57-2.26,5.1-3.37a33.94,33.94,0,0,0,4-3.33,32.43,32.43,0,0,0,3.82,3.43ZM168.6,410.57h11.1a47.71,47.71,0,0,1-3.2,3.65A16.94,16.94,0,0,1,175,415.6a7.72,7.72,0,0,1-1.35.85,8.38,8.38,0,0,1-1.4.52c-.48.13-1,.27-1.62.4l2.4,8.05,2.2-.27,2.17-.25c.75-.09,1.56-.17,2.43-.25l3-.28c1.4-.1,2.92-.19,4.57-.27l5.1-.28,5.23-.3c1.73-.1,3.35-.18,4.85-.25.53.67,1,1.3,1.45,1.9s.83,1.13,1.2,1.6l6.75-5.55q-2.2-2.75-4.65-5.57t-4.65-5.08h9.8v-7.25H168.6v7.25Zm25.12,5.95c-1.18,0-2.34.08-3.47.13l-3.2.12c-1,0-1.87.05-2.6.05l2.75-3.22c.83-1,1.67-2,2.5-3h7.9l-3.15,2.4c.37.43.78.94,1.25,1.53l1.5,1.87q-1.69.11-3.48.15Z" transform="translate(-68 -361)"/><path class="cls-4" d="M229.05,420.27h14a26.89,26.89,0,0,0,6.72-.7,10.92,10.92,0,0,0,4.25-2,6.82,6.82,0,0,0,2.2-3.17,13.24,13.24,0,0,0,.63-4.23,7.75,7.75,0,0,0-1.63-5.3,9.35,9.35,0,0,0-4.32-2.7V402a6.5,6.5,0,0,0,4-2.52A8.15,8.15,0,0,0,256,395a12,12,0,0,0-.65-4.12A6.2,6.2,0,0,0,253.1,388a11.33,11.33,0,0,0-4.3-1.78,32.13,32.13,0,0,0-6.8-.6H229.05v34.7Zm9.95-21v-5.85h1.85a11.61,11.61,0,0,1,4,.5,2.24,2.24,0,0,1,1.23,2.35c0,1.3-.41,2.13-1.23,2.48a11,11,0,0,1-4,.52Zm0,13.2v-6.3h2.6a14.89,14.89,0,0,1,2.55.18,4.34,4.34,0,0,1,1.6.55,2.07,2.07,0,0,1,.85,1,4,4,0,0,1,.25,1.52,3.85,3.85,0,0,1-.25,1.5,2,2,0,0,1-.85.95,4.44,4.44,0,0,1-1.63.48,22.12,22.12,0,0,1-2.52.12Zm31.5-19.5a32.56,32.56,0,0,0-3.5.35v8a32.49,32.49,0,0,1,5.55-.45,23.29,23.29,0,0,1,2.45.1,3.74,3.74,0,0,1,1.52.45,2,2,0,0,1,.83.95,4.86,4.86,0,0,1,.3,1.65H272.1c-3.93,0-6.82.64-8.65,1.93s-2.75,3.47-2.75,6.57q0,4.35,2.47,6.35a10.44,10.44,0,0,0,6.73,2,15.75,15.75,0,0,0,3.12-.27,10.37,10.37,0,0,0,2.28-.73,6.78,6.78,0,0,0,1.55-1,4.53,4.53,0,0,0,.9-1l.75,2.5h8.6V401.92a10.31,10.31,0,0,0-.73-4.07,6.47,6.47,0,0,0-2.32-2.85,11,11,0,0,0-4.1-1.65,29.88,29.88,0,0,0-6.05-.53c-1,0-2.1,0-3.4.1Zm.17,20.45a1.38,1.38,0,0,1-.77-1.4,1.63,1.63,0,0,1,.85-1.62,7.6,7.6,0,0,1,3.1-.43h3.8V412a4.2,4.2,0,0,1-1.78,1.2,7.88,7.88,0,0,1-3,.5,5.67,5.67,0,0,1-2.23-.35Zm29.83-23.05a3.18,3.18,0,0,0,1.57-.62,2.28,2.28,0,0,0,.75-1.45,15.18,15.18,0,0,0,.18-2.63,14.12,14.12,0,0,0-.18-2.57,2.2,2.2,0,0,0-.75-1.4,2.92,2.92,0,0,0-1.57-.6,27.07,27.07,0,0,0-5.3,0,2.81,2.81,0,0,0-1.55.6,2.4,2.4,0,0,0-.75,1.4,13,13,0,0,0-.2,2.57,14,14,0,0,0,.2,2.63,2.49,2.49,0,0,0,.75,1.45,3.07,3.07,0,0,0,1.55.62,23.48,23.48,0,0,0,5.3,0Zm-7.4,29.95h9.5v-27h-9.5v27Z" transform="translate(-68 -361)"/><path class="cls-4" d="M410.69,389.61V383H371.31v6.66h15c-.12.6-.26,1.22-.41,1.86s-.3,1.27-.45,1.87H375v29.43h32V393.34H393.32c.15-.51.31-1.11.47-1.8s.32-1.33.47-1.93ZM399.3,404.77H382.47v-4.95H399.3v4.95ZM382.47,416.2v-5.26H399.3v5.26Zm74.16.63c-1.8-.18-3.45-.37-5-.56s-2.92-.4-4.21-.61a29.14,29.14,0,0,0,5.67-4.59v-5.44H426.26v4.9h3.06l-2.34,2c.72.6,1.43,1.16,2.14,1.69s1.4,1,2.09,1.51c-1.2.27-2.45.51-3.76.74s-2.68.44-4.12.65q.45-1.58.81-3.33c.24-1.17.45-2.44.61-3.82s.29-2.91.36-4.59.11-3.57.11-5.67v-1.53h4.32v5.89h20.84v-5.89h5.17v-5.81h-5.17v-2.43h5v-6.16H442.1c-.09-.36-.19-.73-.29-1.11s-.22-.72-.34-1h-8.19l.67,2.16h-15.7v16.92q0,3.33-.25,5.91a39.4,39.4,0,0,1-.74,4.84A34.88,34.88,0,0,1,416,415.8q-.76,2.11-1.76,4.5l6.75,3.28c.42-1,.8-1.88,1.13-2.77s.64-1.77.94-2.67l3.06,5.31A111.34,111.34,0,0,0,439,419.71a54.18,54.18,0,0,0,6.52,2q3.55.85,8.24,1.71l2.92-6.57Zm-27.09-26.91v2.43h-4.32v-2.43Zm13.95,2.43h-7.11v-2.43h7.11v2.43Zm-7.11,7.47v-2.43h7.11v2.43Zm8.15,10.71a28.84,28.84,0,0,1-2.7,1.53q-1.44.72-3.06,1.35a24.71,24.71,0,0,1-2.77-1.33,24,24,0,0,1-2.41-1.55Z" transform="translate(-68 -361)"/><path class="cls-3" d="M510.85,397.92l1.15-17H490.75v7.6H503.5l-.8,9.4h-4.35l.55-7.2-7.1-.15-1.15,14.9h15.8l-.3,9.5a10,10,0,0,1-.28,1.68,2,2,0,0,1-.55,1,2.19,2.19,0,0,1-1,.5,12.76,12.76,0,0,1-1.62.25l-4.05.35,2.15,7.45,4.65-.45a22.92,22.92,0,0,0,4-.62,5.86,5.86,0,0,0,2.53-1.33,5.05,5.05,0,0,0,1.35-2.47,20.64,20.64,0,0,0,.5-4.13c0-.77.07-1.83.1-3.2s.07-2.91.1-4.62.07-3.56.1-5.53.08-3.93.15-5.9Zm-39.6,23.35h16.9v-39h-16.9v39Zm7.05-31h3.05v22.85H478.3V390.22Zm25.8,18.2H490v7.75H504.1v-7.75Zm23.4-.65h7.75v-.85a3.59,3.59,0,0,1,.1-.9,2.35,2.35,0,0,1,.47-.87,8.36,8.36,0,0,1,1.08-1.1c.47-.42,1.08-.93,1.85-1.53a13.52,13.52,0,0,0,2.1-1.95,8.25,8.25,0,0,0,1.25-2,8,8,0,0,0,.6-2.2,21,21,0,0,0,.15-2.63,12.07,12.07,0,0,0-.68-4.37,5.78,5.78,0,0,0-2.12-2.73,9.47,9.47,0,0,0-3.83-1.4,34.65,34.65,0,0,0-5.72-.4q-1.95,0-3.93.18a20.89,20.89,0,0,0-3.52.57v7.8a21.25,21.25,0,0,1,2.52-.47,20.41,20.41,0,0,1,2.73-.18,9.31,9.31,0,0,1,3.45.43c.63.28,1,1,1,2.07a3.91,3.91,0,0,1-.38,1.88,7,7,0,0,1-1.52,1.67,18.35,18.35,0,0,0-1.53,1.5,7.52,7.52,0,0,0-1,1.48,6.1,6.1,0,0,0-.58,1.65,11.22,11.22,0,0,0-.17,2.07v2.25Zm6.6,12.6a2.48,2.48,0,0,0,2.2-2.25,16.68,16.68,0,0,0,.15-2.5,17.17,17.17,0,0,0-.15-2.52,2.62,2.62,0,0,0-.68-1.5,2.86,2.86,0,0,0-1.52-.73,18.32,18.32,0,0,0-5.4,0,2.89,2.89,0,0,0-1.53.73,2.62,2.62,0,0,0-.67,1.5,17.17,17.17,0,0,0-.15,2.52,16.68,16.68,0,0,0,.15,2.5,2.46,2.46,0,0,0,2.2,2.25,18.32,18.32,0,0,0,5.4,0Z" transform="translate(-68 -361)"/><g class="cls-5"><rect class="cls-3" x="234.87" width="67.82" height="70.6"/></g></svg>