<?xml version="1.0" encoding="UTF-8"?>
<svg width="500px" height="71px" viewBox="0 0 500 71" version="1.1" xmlns="http://www.w3.org/2000/svg" xmlns:xlink="http://www.w3.org/1999/xlink">
    <title>你不会百度吗</title>
    <g id="页面-1" stroke="none" stroke-width="1" fill="none" fill-rule="evenodd">
        <text id="你不会" font-family="AlibabaPuHuiTi-Heavy, Alibaba PuHuiTi" font-size="50" font-weight="600" fill="#3470F2">
            <tspan x="0" y="55">你不会</tspan>
        </text>
        <text id="Bai" font-family="AlibabaPuHuiTi-Heavy, Alibaba PuHuiTi" font-size="50" font-weight="600" fill="#E11402">
            <tspan x="159" y="55">Bai</tspan>
        </text>
        <text id="百度" font-family="AlibabaPuHuiTi-Heavy, Alibaba PuHuiTi" font-size="45" font-weight="600" fill="#E11402">
            <tspan x="302" y="53">百度</tspan>
        </text>
        <text id="吗？" font-family="AlibabaPuHuiTi-Heavy, Alibaba PuHuiTi" font-size="50" font-weight="600" fill="#3470F2">
            <tspan x="401" y="55">吗？</tspan>
        </text>
        <g id="baidu" transform="translate(241.040000, 0.680000)" fill="#3470F3" fill-rule="nonzero">
            <path d="M19.9332079,0.547792527 C19.1704633,0.813487011 17.9917582,1.61057046 17.2637146,2.37419929 C15.4957696,4.26686779 14.7332504,6.55818594 14.767726,9.87861157 C14.767726,12.1366909 14.9412307,12.867081 15.8772546,14.7599653 C17.8531798,18.8774744 21.7703294,20.1724922 24.8904841,17.7484347 C28.8770356,14.6602489 29.6050792,7.35505356 26.4157479,2.97185 C25.5836015,1.84281032 22.6371767,0.016619395 21.7011528,0.0498581851 C21.4931726,0.0830969751 20.6957271,0.282313879 19.9332079,0.547792527 L19.9332079,0.547792527 Z M38.5836078,1.94252669 C37.2663243,2.20822117 34.1808705,5.16345178 33.210371,7.08935907 C31.5463035,10.343523 31.6157054,14.4942708 33.3836504,17.0510676 C34.9436151,19.2759082 38.4448041,20.2055151 41.1834739,19.1097142 C44.8581676,17.6487183 47.6660139,12.2694302 46.7993919,8.48409324 C45.7941915,4.26686779 41.9809194,1.24515961 38.5836078,1.94252669 Z M5.37323681,14.4942708 C3.53588996,15.0919215 1.52526377,17.3167621 0.831921089,19.4418863 C-0.55476428,23.7918511 -0.0347009339,27.3447324 2.3918858,30.0012456 C4.16005611,31.8939141 5.33853588,32.3920642 7.93862728,32.1928473 C10.7117727,31.9936304 12.479943,30.831352 13.7625256,28.307794 C14.5944467,26.7138429 14.6985495,26.0829534 14.6985495,23.459679 C14.6985495,21.0688603 14.5597457,20.2055151 13.9358049,19.1097142 C12.7918007,16.98459 11.57862,15.7892886 9.63717039,14.8594658 C7.59184327,13.8633813 7.27998553,13.8633813 5.37323681,14.4942708 L5.37323681,14.4942708 Z M47.2153525,19.1761918 C44.6154864,20.4379708 43.3329038,23.2604621 43.3329038,27.7431662 C43.3329038,31.0638077 43.7835653,32.6245199 45.1008488,34.0855158 C46.5567107,35.6794669 48.7061406,36.3766181 51.4448104,36.1774012 C53.9752746,35.9781843 55.3272591,35.314056 56.4367876,33.7865826 C57.5805665,32.1928473 57.8926495,30.7981132 57.8926495,27.41121 C57.8926495,24.721458 57.7887721,24.1570461 56.9219247,22.5963338 C55.5007637,20.0062982 53.6634169,18.8442356 50.6820659,18.7112804 C49.0179984,18.6450187 48.0474989,18.777758 47.2153525,19.1761918 L47.2153525,19.1761918 Z M24.9596607,25.6512808 C22.6716523,26.6475811 21.3196679,27.7431662 19.7944041,29.8685062 C17.749077,32.7240205 15.8425536,34.6831665 11.6824975,38.1365473 C5.37323681,43.3498573 4.05595331,45.3090034 4.02125237,49.3600349 C3.95185051,54.2413886 6.89850058,58.5581146 11.0238558,59.6869384 C13.4157416,60.3510667 19.6211248,60.1850886 24.266318,59.2885046 C27.8716098,58.6243763 31.4769016,58.7905703 35.8796389,59.8531324 C40.3168519,60.9156945 45.2394272,60.9156945 47.7701167,59.8531324 C52.5541137,57.7942699 55.0154013,51.5183979 53.0047751,46.3383267 C52.4500109,44.9105696 51.7566682,44.0139856 50.1620025,42.5862285 C45.1702507,38.1697861 39.5196317,32.5912811 37.7169858,30.26694 C35.7063596,27.6769044 33.6263316,25.9834528 31.5810044,25.3525633 C29.7436576,24.7546968 26.7276056,24.887652 24.9596607,25.6512808 Z M25.9997874,34.9156222 C26.4504488,35.1813167 26.5196254,36.7752678 26.6237282,45.2095028 L26.7276056,55.1709956 L22.6024758,55.1709956 C17.5410967,55.1709956 15.5651715,54.6730612 13.7972265,52.9463708 C12.1678599,51.3524198 11.7866003,50.3230964 11.7866003,47.6998221 C11.7866003,45.1430253 12.1678599,44.0472244 13.6239472,42.6194673 C15.4610687,40.7598217 16.9171559,40.2286486 20.1064872,40.2286486 L22.8796326,40.2286486 L22.8796326,34.583666 L24.1971414,34.583666 C24.8904841,34.583666 25.7224052,34.7496441 25.9997874,34.9156222 L25.9997874,34.9156222 Z M32.9329889,45.4417427 C32.9329889,51.4851591 32.9676898,51.5183979 36.6421582,51.5183979 L39.1728477,51.5183979 L39.1728477,40.8927769 L43.4020804,40.8927769 L43.2635019,47.2349107 C43.1249235,55.2707119 43.4714822,54.8390393 37.0236431,54.8390393 C32.1702443,54.8390393 31.1650439,54.5733448 29.8477604,52.9796096 C29.1888933,52.1492874 29.1197168,51.6845918 29.1197168,46.5375436 C29.1197168,43.4828125 29.2235942,40.8927769 29.362398,40.7930605 C29.4662754,40.6603212 30.3328975,40.5606048 31.2689214,40.5606048 L32.9329889,40.5606048 L32.9329889,45.4417427 L32.9329889,45.4417427 Z M17.749077,43.8812463 C15.8078527,45.0100701 15.11451,47.4673664 16.0852348,49.6922069 C16.7785775,51.2196804 18.2691404,51.9168317 20.730428,51.7840923 L22.7063533,51.6845918 L22.7063533,43.3830961 L20.7998299,43.2833797 C19.3784436,43.217118 18.615699,43.3830961 17.749077,43.8812463 Z" id="形状"></path>
        </g>
    </g>
</svg>